<?xml version="1.0" encoding="UTF-8"?>
<svg version="1.1" xmlns="http://www.w3.org/2000/svg" width="64" height="64">
<path d="M0 0 C0.9170874 -0.00287018 1.8341748 -0.00574036 2.77905273 -0.00869751 C4.71566384 -0.01073661 6.65229562 -0.00521751 8.58886719 0.00732422 C11.5519011 0.02338007 14.51357098 0.00747033 17.4765625 -0.01171875 C19.35937801 -0.00973629 21.24219267 -0.00589256 23.125 0 C24.45325806 -0.00910904 24.45325806 -0.00910904 25.80834961 -0.0184021 C31.88847013 0.05106681 31.88847013 0.05106681 35.10498047 1.70874023 C37.41023143 4.38120956 37.42129793 7.44997702 37.6875 10.8359375 C38.10689424 16.92378587 38.10689424 16.92378587 40.5625 22.3984375 C41.5525 23.0584375 42.5425 23.7184375 43.5625 24.3984375 C42.93247319 29.06063589 42.93247319 29.06063589 41.125 30.7109375 C37.25163354 34.89417328 37.31382679 41.96663573 37.1015625 47.41796875 C36.5625 49.3984375 36.5625 49.3984375 35.11865234 50.99731445 C31.21898995 53.13486579 27.50342339 52.82690172 23.125 52.796875 C22.2079126 52.79974518 21.2908252 52.80261536 20.34594727 52.80557251 C18.40933616 52.80761161 16.47270438 52.80209251 14.53613281 52.78955078 C11.5730989 52.77349493 8.61142902 52.78940467 5.6484375 52.80859375 C3.76562199 52.80661129 1.88280733 52.80276756 0 52.796875 C-1.32825806 52.80598404 -1.32825806 52.80598404 -2.68334961 52.8152771 C-8.76347013 52.74580819 -8.76347013 52.74580819 -11.97998047 51.08813477 C-14.28523143 48.41566544 -14.29629793 45.34689798 -14.5625 41.9609375 C-14.98189424 35.87308913 -14.98189424 35.87308913 -17.4375 30.3984375 C-18.4275 29.7384375 -19.4175 29.0784375 -20.4375 28.3984375 C-19.80747319 23.73623911 -19.80747319 23.73623911 -18 22.0859375 C-14.12663354 17.90270172 -14.18882679 10.83023927 -13.9765625 5.37890625 C-13.4375 3.3984375 -13.4375 3.3984375 -11.99365234 1.79956055 C-8.09398995 -0.33799079 -4.37842339 -0.03002672 0 0 Z " fill="#7D12F8" transform="translate(20.4375,5.6015625)"/>
<path d="M0 0 C14 0 14 0 18 2 C19.39935013 4.79870027 19.25265405 6.90498792 19 10 C17.5 11.875 17.5 11.875 16 13 C16.825 13.53625 17.65 14.0725 18.5 14.625 C21 17 21 17 21.5625 20 C20.88355363 23.62104732 19.88564803 24.77392866 17 27 C11.61483519 28.79505494 5.67646212 28 0 28 C0 18.76 0 9.52 0 0 Z " fill="#F1E6FE" transform="translate(22,18)"/>
<path d="M0 0 C1.258125 -0.04125 2.51625 -0.0825 3.8125 -0.125 C4.52019531 -0.14820313 5.22789063 -0.17140625 5.95703125 -0.1953125 C8 0 8 0 11 2 C11.3125 4.5 11.3125 4.5 11 7 C9 9 9 9 6.8359375 9.1953125 C4.55729167 9.13020833 2.27864583 9.06510417 0 9 C0 6.03 0 3.06 0 0 Z " fill="#7E17F8" transform="translate(27,33)"/>
<path d="M0 0 C6.0546875 -0.1953125 6.0546875 -0.1953125 8 0 C8.66 0.66 9.32 1.32 10 2 C9.75 4.5625 9.75 4.5625 9 7 C6.04335481 8.4783226 3.25770263 8.06032783 0 8 C0 5.36 0 2.72 0 0 Z " fill="#8015F9" transform="translate(27,22)"/>
</svg>
