<?xml version="1.0" encoding="UTF-8"?>
<svg version="1.1" xmlns="http://www.w3.org/2000/svg" width="64" height="64">
<path d="M0 0 C15.18 0 30.36 0 46 0 C44.81651037 23.66979269 44.81651037 23.66979269 44.0625 32.4375 C43.98837891 33.40236328 43.91425781 34.36722656 43.83789062 35.36132812 C43.00940457 45.09435532 43.00940457 45.09435532 41 48 C38.52742037 49.09416997 36.52929059 49.7806219 33.9375 50.375 C33.25647217 50.5407251 32.57544434 50.7064502 31.8737793 50.87719727 C26.52745809 52.08172451 22.2798849 52.29952417 17 51 C15.95199219 50.76410156 14.90398438 50.52820312 13.82421875 50.28515625 C5.26307692 48.26307692 5.26307692 48.26307692 4 47 C3.62457024 43.96224131 3.30675964 40.93766118 3.02734375 37.890625 C2.93997452 36.97166443 2.85260529 36.05270386 2.7625885 35.105896 C2.57812633 33.15575808 2.39585429 31.20541197 2.21557617 29.25488281 C1.9399227 26.27617957 1.65706916 23.29822815 1.37304688 20.3203125 C1.19488291 18.42712371 1.01713513 16.5338957 0.83984375 14.640625 C0.75548569 13.75086975 0.67112762 12.8611145 0.58421326 11.94439697 C0.50735794 11.10713074 0.43050262 10.2698645 0.35131836 9.40722656 C0.28327499 8.67522034 0.21523163 7.94321411 0.14512634 7.18902588 C-0.01342878 4.79744581 0 2.39683019 0 0 Z " fill="#D1372A" transform="translate(9,7)"/>
<path d="M0 0 C9.24 0 18.48 0 28 0 C28 1.98 28 3.96 28 6 C20.74 6 13.48 6 6 6 C6 7.65 6 9.3 6 11 C12.93 11 19.86 11 27 11 C26.67 16.94 26.34 22.88 26 29 C16.88171287 32.12270107 11.0924564 31.78340502 2 29 C2 26.03 2 23.06 2 20 C3.98 20 5.96 20 8 20 C8 21.65 8 23.3 8 25 C9.43739513 25.02712066 10.87493863 25.04645067 12.3125 25.0625 C13.11300781 25.07410156 13.91351563 25.08570312 14.73828125 25.09765625 C17.16861334 25.09657855 17.16861334 25.09657855 20 24 C20.33 21.69 20.66 19.38 21 17 C14.4 17 7.8 17 1 17 C0.67 11.39 0.34 5.78 0 0 Z " fill="#FCF2F1" transform="translate(18,17)"/>
<path d="M0 0 C6.27 0 12.54 0 19 0 C18.5625 6.9375 18.5625 6.9375 18.41430664 9.27661133 C18.17641781 13.0625963 17.9505227 16.84877051 17.74609375 20.63671875 C17.70476318 21.38767822 17.66343262 22.1386377 17.62084961 22.91235352 C17.5421047 24.35410123 17.46596574 25.79599437 17.39282227 27.23803711 C17.17038401 31.2648023 16.66785609 34.99286347 16 39 C10.72 40.32 5.44 41.64 0 43 C0 41.02 0 39.04 0 37 C1.43554025 36.49440092 2.8735202 35.9957251 4.3125 35.5 C5.11300781 35.2215625 5.91351563 34.943125 6.73828125 34.65625 C9 34 9 34 12 34 C11.98839844 33.20335937 11.97679688 32.40671875 11.96484375 31.5859375 C11.95582031 30.52632812 11.94679688 29.46671875 11.9375 28.375 C11.92589844 27.33085938 11.91429688 26.28671875 11.90234375 25.2109375 C12 22 12 22 13 16 C6.07 16 -0.86 16 -8 16 C-8 14.35 -8 12.7 -8 11 C-0.74 11 6.52 11 14 11 C14 9.02 14 7.04 14 5 C9.38 5 4.76 5 0 5 C0 3.35 0 1.7 0 0 Z " fill="#E84033" transform="translate(32,12)"/>
<path d="M0 0 C6.27 0 12.54 0 19 0 C19 2.31 19 4.62 19 7 C15.5980513 9.09350689 12.94727588 9.17942163 9 9 C9.99 8.67 10.98 8.34 12 8 C12 5.69 12 3.38 12 1 C8.04 1 4.08 1 0 1 C0 0.67 0 0.34 0 0 Z " fill="#E75347" transform="translate(20,34)"/>
<path d="M0 0 C0 2.31 0 4.62 0 7 C-1.98 7 -3.96 7 -6 7 C-6 5.35 -6 3.7 -6 2 C-7.98 2 -9.96 2 -12 2 C-12 1.67 -12 1.34 -12 1 C-7.93631321 0.22596442 -4.13574827 -0.0984702 0 0 Z " fill="#D24033" transform="translate(32,35)"/>
<path d="M0 0 C2.64 0 5.28 0 8 0 C8 1.65 8 3.3 8 5 C5.36 5 2.72 5 0 5 C0 3.35 0 1.7 0 0 Z " fill="#D23F32" transform="translate(24,23)"/>
</svg>
