<?xml version="1.0" encoding="UTF-8"?>
<svg version="1.1" xmlns="http://www.w3.org/2000/svg" width="64" height="64">
<path d="M0 0 C8.05858941 5.4798408 14.3239375 11.78303125 16.953125 21.328125 C18.26319542 33.14395241 16.73383344 41.90348548 9.27734375 51.48046875 C3.70507638 57.5395089 -3.2110922 60.9847225 -11.40234375 61.56640625 C-22.6817884 61.78486644 -29.86951319 60.00766749 -38.2578125 52.1875 C-45.42201497 44.74173498 -47.44875635 37.6421355 -47.41479492 27.37524414 C-47.27256078 21.50724325 -46.15410302 17.2547168 -43.046875 12.328125 C-42.69625 11.70679688 -42.345625 11.08546875 -41.984375 10.4453125 C-33.73198708 -2.79289313 -13.6222471 -7.38304995 0 0 Z " fill="#010101" transform="translate(47.046875,2.671875)"/>
<path d="M0 0 C6 0 6 0 7.80761719 1.44604492 C8.29907227 2.11740479 8.79052734 2.78876465 9.296875 3.48046875 C9.85882568 4.2266748 10.42077637 4.97288086 10.99975586 5.74169922 C11.57733643 6.54881348 12.15491699 7.35592773 12.75 8.1875 C13.9749629 9.84006433 15.20022565 11.49240643 16.42578125 13.14453125 C17.02600098 13.96646973 17.6262207 14.7884082 18.24462891 15.63525391 C19.83927671 17.7834818 21.4798469 19.87413487 23.16796875 21.94921875 C23.87518066 22.82574097 23.87518066 22.82574097 24.59667969 23.7199707 C25.86213587 25.28197498 27.13209928 26.84032463 28.40234375 28.3984375 C30 31 30 31 29.75390625 33.3515625 C29.50511719 33.89554688 29.25632812 34.43953125 29 35 C24.88388146 33.47411624 22.82201557 30.54521887 20.3125 27.125 C19.88404785 26.55434814 19.4555957 25.98369629 19.01416016 25.39575195 C18.12043349 24.20373376 17.23017773 23.009106 16.34326172 21.81201172 C14.63684892 19.51012226 12.9124902 17.22200341 11.18774414 14.93383789 C9.45327167 12.62647662 7.72748329 10.3125986 6 8 C5.67 13.94 5.34 19.88 5 26 C3.35 26 1.7 26 0 26 C0 17.42 0 8.84 0 0 Z " fill="#E4E4E4" transform="translate(19,19)"/>
<path d="M0 0 C1.32 0 2.64 0 4 0 C4 4.62 4 9.24 4 14 C2.68 14 1.36 14 0 14 C0 9.38 0 4.76 0 0 Z " fill="#7A7A7A" transform="translate(41,19)"/>
<path d="M0 0 C6.37675351 6.20440882 6.37675351 6.20440882 8 9 C7.6875 11.25 7.6875 11.25 7 13 C2.44984107 11.48328036 0.49942736 7.83108947 -2 4 C-1.34 3.67 -0.68 3.34 0 3 C0 2.01 0 1.02 0 0 Z " fill="#A5A5A5" transform="translate(41,41)"/>
<path d="M0 0 C1.32 0 2.64 0 4 0 C4 1.98 4 3.96 4 6 C2.68 6 1.36 6 0 6 C0 4.02 0 2.04 0 0 Z " fill="#D0D0D0" transform="translate(41,19)"/>
<path d="M0 0 C1.5625 1.25 1.5625 1.25 3 3 C2.6875 5.1875 2.6875 5.1875 2 7 C-1.875 5.25 -1.875 5.25 -3 3 C-2.01 3 -1.02 3 0 3 C0 2.01 0 1.02 0 0 Z " fill="#575757" transform="translate(46,47)"/>
</svg>
